<mxfile host="app.diagrams.net" modified="2023-10-24T06:41:42.981Z" agent="Mozilla/5.0 (Windows NT 10.0; Win64; x64) AppleWebKit/537.36 (KHTML, like Gecko) Chrome/118.0.0.0 Safari/537.36" version="21.7.1" etag="qV7fLBNQp0ewEasCGeRH" type="github">
  <diagram name="Page-1" id="pmcb4okRTPf0ZN0nCpQz">
    <mxGraphModel>
      <root>
        <mxCell id="0" />
        <mxCell id="1" parent="0" />
      </root>
    </mxGraphModel>
  </diagram>
</mxfile>
